<svg width="18" height="18" viewBox="0 0 18 18" fill="none" xmlns="http://www.w3.org/2000/svg">
    <path fill-rule="evenodd" clip-rule="evenodd"
        d="M9.75637 2.11408C9.31562 1.75624 8.68441 1.75624 8.24366 2.11408L6.95245 3.16237C6.77155 3.30924 6.5518 3.40026 6.32003 3.42433L4.66575 3.5961C4.10106 3.65473 3.65473 4.10106 3.5961 4.66575L3.42433 6.32003C3.40026 6.5518 3.30924 6.77155 3.16237 6.95245L2.11408 8.24366C1.75624 8.68441 1.75624 9.31562 2.11408 9.75637L3.16237 11.0476C3.30924 11.2285 3.40026 11.4482 3.42433 11.68L3.5961 13.3343C3.65473 13.899 4.10106 14.3453 4.66575 14.4039L6.32003 14.5757C6.5518 14.5998 6.77155 14.6908 6.95245 14.8377L8.24366 15.886C8.68441 16.2438 9.31562 16.2438 9.75637 15.886L11.0476 14.8377C11.2285 14.6908 11.4482 14.5998 11.68 14.5757L13.3343 14.4039C13.899 14.3453 14.3453 13.899 14.4039 13.3343L14.5757 11.68C14.5998 11.4482 14.6908 11.2285 14.8377 11.0476L15.886 9.75637C16.2438 9.31562 16.2438 8.68441 15.886 8.24366L14.8377 6.95245C14.6908 6.77155 14.5998 6.5518 14.5757 6.32003L14.4039 4.66575C14.3453 4.10106 13.899 3.65473 13.3343 3.5961L11.68 3.42433C11.4482 3.40026 11.2285 3.30924 11.0476 3.16237L9.75637 2.11408ZM7.12125 11.6212L11.6212 7.12125C11.8263 6.91622 11.8263 6.58381 11.6212 6.37879C11.4162 6.17376 11.0838 6.17376 10.8788 6.37879L6.37879 10.8788C6.17376 11.0838 6.17376 11.4162 6.37879 11.6212C6.58381 11.8263 6.91622 11.8263 7.12125 11.6212ZM10.6432 11.25C10.6432 10.9186 10.9119 10.65 11.2432 10.65H11.2567C11.5881 10.65 11.8567 10.9186 11.8567 11.25C11.8567 11.5814 11.5881 11.85 11.2567 11.85H11.2432C10.9119 11.85 10.6432 11.5814 10.6432 11.25ZM6.74327 6.15002C6.4119 6.15002 6.14327 6.41865 6.14327 6.75002C6.14327 7.08139 6.4119 7.35002 6.74327 7.35002H6.75677C7.08814 7.35002 7.35677 7.08139 7.35677 6.75002C7.35677 6.41865 7.08814 6.15002 6.75677 6.15002H6.74327Z"
        fill="white" />
</svg>
