<svg width="16" height="16" viewBox="0 0 16 16" fill="none" xmlns="http://www.w3.org/2000/svg">
    <path d="M8 8H2V9H8V8Z" fill="white" />
    <path d="M6 5.5H1V6.5H6V5.5Z" fill="white" />
    <path
        d="M14.9592 8.3032L13.4592 4.8032C13.4207 4.71319 13.3567 4.63646 13.275 4.58256C13.1933 4.52865 13.0976 4.49994 12.9997 4.5H11.4997V3.5C11.4997 3.36739 11.4471 3.24021 11.3533 3.14645C11.2595 3.05268 11.1323 3 10.9997 3H2.99973V4H10.4997V10.2781C10.2719 10.4104 10.0726 10.5865 9.91312 10.7962C9.75368 11.0059 9.63733 11.2451 9.57078 11.5H6.42868C6.30698 11.0287 6.01756 10.6179 5.61468 10.3447C5.21179 10.0715 4.72309 9.9546 4.24018 10.0159C3.75727 10.0773 3.31331 10.3126 2.99152 10.6779C2.66972 11.0431 2.49219 11.5132 2.49219 12C2.49219 12.4868 2.66972 12.9569 2.99152 13.3221C3.31331 13.6874 3.75727 13.9227 4.24018 13.9841C4.72309 14.0454 5.21179 13.9285 5.61468 13.6553C6.01756 13.3821 6.30698 12.9713 6.42868 12.5H9.57078C9.6798 12.9289 9.92865 13.3092 10.278 13.5808C10.6273 13.8525 11.0572 13.9999 11.4997 13.9999C11.9422 13.9999 12.3721 13.8525 12.7215 13.5808C13.0708 13.3092 13.3197 12.9289 13.4287 12.5H14.4997C14.6323 12.5 14.7595 12.4473 14.8533 12.3536C14.9471 12.2598 14.9997 12.1326 14.9997 12V8.5C14.9997 8.43233 14.9859 8.36537 14.9592 8.3032ZM4.49973 13C4.30195 13 4.10861 12.9414 3.94416 12.8315C3.77971 12.7216 3.65154 12.5654 3.57585 12.3827C3.50016 12.2 3.48036 11.9989 3.51894 11.8049C3.55753 11.6109 3.65277 11.4327 3.79262 11.2929C3.93247 11.153 4.11066 11.0578 4.30464 11.0192C4.49862 10.9806 4.69969 11.0004 4.88241 11.0761C5.06514 11.1518 5.22132 11.28 5.3312 11.4444C5.44108 11.6089 5.49973 11.8022 5.49973 12C5.49942 12.2651 5.39397 12.5193 5.2065 12.7068C5.01903 12.8942 4.76485 12.9997 4.49973 13ZM11.4997 5.5H12.6701L13.7417 8H11.4997V5.5ZM11.4997 13C11.3019 13 11.1086 12.9414 10.9442 12.8315C10.7797 12.7216 10.6515 12.5654 10.5758 12.3827C10.5002 12.2 10.4804 11.9989 10.5189 11.8049C10.5575 11.6109 10.6528 11.4327 10.7926 11.2929C10.9325 11.153 11.1107 11.0578 11.3046 11.0192C11.4986 10.9806 11.6997 11.0004 11.8824 11.0761C12.0651 11.1518 12.2213 11.28 12.3312 11.4444C12.4411 11.6089 12.4997 11.8022 12.4997 12C12.4994 12.2651 12.394 12.5193 12.2065 12.7068C12.019 12.8942 11.7649 12.9997 11.4997 13ZM13.9997 11.5H13.4287C13.3185 11.0717 13.0694 10.6921 12.7203 10.4207C12.3712 10.1492 11.9419 10.0013 11.4997 10V9H13.9997V11.5Z"
        fill="white" />
</svg>
