<svg width="16" height="16" viewBox="0 0 16 16" fill="none" xmlns="http://www.w3.org/2000/svg">
    <path
        d="M8 3.5L8.956 5.3335L11 5.5865L9.5 6.963L9.8 9L8 7.854L6.2 9L6.5 6.963L5 5.5865L7.1 5.3335L8 3.5Z"
        fill="white" />
    <path
        d="M8.00001 15L3.78226 10.0257C3.75831 9.9971 3.60816 9.7999 3.60816 9.7999C2.88761 8.85084 2.49832 7.6916 2.50001 6.5C2.50001 5.04131 3.07947 3.64236 4.11092 2.61091C5.14237 1.57946 6.54131 1 8.00001 1C9.4587 1 10.8576 1.57946 11.8891 2.61091C12.9205 3.64236 13.5 5.04131 13.5 6.5C13.5018 7.69111 13.1128 8.84991 12.3926 9.79865L12.3919 9.7999C12.3919 9.7999 12.2419 9.9971 12.2195 10.0236L8.00001 15ZM4.40626 9.1975C4.40676 9.19785 4.52296 9.3516 4.54956 9.3847L8.00001 13.4539L11.455 9.37895C11.477 9.35135 11.5942 9.1965 11.5944 9.1961C12.183 8.42064 12.5012 7.47356 12.5 6.5C12.5 5.30653 12.0259 4.16193 11.182 3.31802C10.3381 2.47411 9.19348 2 8.00001 2C6.80653 2 5.66194 2.47411 4.81802 3.31802C3.97411 4.16193 3.50001 5.30653 3.50001 6.5C3.4989 7.47409 3.81725 8.42167 4.40626 9.1975Z"
        fill="white" />
</svg>
