<svg width="22" height="22" viewBox="0 0 22 22" fill="none" xmlns="http://www.w3.org/2000/svg">
    <path
        d="M11 1.375C8.99506 1.37744 7.07292 2.17498 5.65521 3.5927C4.23749 5.01041 3.43995 6.93255 3.43751 8.9375C3.43514 10.576 3.97042 12.17 4.96121 13.475C4.96121 13.475 5.16746 13.7462 5.2006 13.7855L11 20.625L16.8018 13.7826C16.8323 13.7459 17.0388 13.4747 17.0388 13.4747L17.0398 13.4731C18.03 12.1686 18.5649 10.5752 18.5625 8.9375C18.5601 6.93255 17.7625 5.01041 16.3448 3.5927C14.9271 2.17498 13.005 1.37744 11 1.375ZM11.6875 12.375H10.3125V11H11.6875V12.375ZM11.6875 9.625H10.3125V8.25H11.6875V9.625ZM14.4375 12.375H13.0625V6.875H8.93751V12.375H7.56251V6.875C7.56293 6.51046 7.70793 6.16096 7.9657 5.90319C8.22347 5.64542 8.57296 5.50042 8.93751 5.5H13.0625C13.4271 5.50042 13.7765 5.64542 14.0343 5.90319C14.2921 6.16096 14.4371 6.51046 14.4375 6.875V12.375Z"
        fill="black" />
</svg>
