<svg width="25" height="25" viewBox="0 0 25 25" fill="none" xmlns="http://www.w3.org/2000/svg">
    <g clip-path="url(#clip0_5968_14727)">
        <path
            d="M7.32858 19.9768C7.22052 19.8897 7.14456 19.769 7.11266 19.6339C7.08077 19.4988 7.09476 19.3569 7.15243 19.2306L10.2865 12.4246L7.38509 11.5926C7.2924 11.5687 7.20644 11.5238 7.13383 11.4614C7.06123 11.399 7.00393 11.3208 6.96635 11.2327C6.92877 11.1447 6.91192 11.0492 6.9171 10.9536C6.92228 10.858 6.94935 10.7648 6.99621 10.6814L11.0372 3.38764C11.1074 3.26232 11.2187 3.16502 11.3522 3.11214C11.4858 3.05925 11.6335 3.054 11.7705 3.09727L17.7775 4.81977C17.8674 4.8452 17.9503 4.89043 18.0204 4.95215C18.0905 5.01387 18.1458 5.0905 18.1824 5.17642C18.2195 5.26335 18.2364 5.35758 18.2319 5.452C18.2273 5.54643 18.2014 5.63859 18.1561 5.72155L15.777 10.0978L18.6304 10.916C18.743 10.9481 18.8444 11.0111 18.9229 11.098C19.0015 11.1849 19.054 11.2922 19.0746 11.4075C19.0898 11.5169 19.0758 11.6284 19.0339 11.7306C18.9921 11.8328 18.9239 11.9221 18.8363 11.9893L8.09941 19.9638C8.0242 20.0269 7.93518 20.0714 7.83957 20.0937C7.74395 20.116 7.64444 20.1154 7.54908 20.092C7.46913 20.0675 7.39438 20.0284 7.32858 19.9768Z"
            fill="#61DC00" />
    </g>
    <defs>
        <clipPath id="clip0_5968_14727">
            <rect width="19.9972" height="20" fill="white"
                transform="matrix(0.961262 0.275637 -0.275549 0.961287 5.50781 0)" />
        </clipPath>
    </defs>
</svg>
