<svg width="25" height="25" viewBox="0 0 25 25" fill="none" xmlns="http://www.w3.org/2000/svg">
    <g clip-path="url(#clip0_5968_14722)">
        <path
            d="M9.50459 19.3492C9.59597 19.0306 9.55701 18.6886 9.39629 18.3987C9.23556 18.1087 8.96624 17.8945 8.64756 17.8031C8.32888 17.7117 7.98696 17.7507 7.697 17.9114C7.40705 18.0721 7.19282 18.3415 7.10144 18.6601L3.09618 17.5117C2.88373 17.4507 2.70418 17.3079 2.59703 17.1146C2.48988 16.9213 2.46391 16.6934 2.52483 16.4809L6.19999 3.66409C6.26091 3.45164 6.40373 3.27209 6.59703 3.16494C6.79034 3.05779 7.01829 3.03182 7.23074 3.09273L11.236 4.24122C11.1446 4.5599 11.1836 4.90183 11.3443 5.19178C11.505 5.48174 11.7743 5.69597 12.093 5.78735C12.4117 5.87873 12.7536 5.83977 13.0436 5.67905C13.3335 5.51832 13.5478 5.249 13.6392 4.93032L21.6497 7.2273C21.8621 7.28821 22.0417 7.43104 22.1488 7.62434C22.256 7.81764 22.2819 8.04559 22.221 8.25804L20.9577 12.6638C20.4266 12.5115 19.8567 12.5765 19.3734 12.8443C18.8902 13.1122 18.5331 13.5611 18.3808 14.0922C18.2285 14.6233 18.2934 15.1932 18.5613 15.6765C18.8292 16.1597 19.2781 16.5168 19.8092 16.6691L18.5459 21.0749C18.4849 21.2873 18.3421 21.4669 18.1488 21.574C17.9555 21.6812 17.7276 21.7071 17.5151 21.6462L9.50459 19.3492ZM10.7148 10.5937C11.0335 10.685 11.3754 10.6461 11.6654 10.4854C11.9554 10.3246 12.1696 10.0553 12.261 9.73663C12.3523 9.41795 12.3134 9.07602 12.1527 8.78607C11.9919 8.49611 11.7226 8.28188 11.4039 8.1905C11.0853 8.09912 10.7433 8.13808 10.4534 8.2988C10.1634 8.45953 9.94919 8.72885 9.85781 9.04753C9.76643 9.36621 9.80539 9.70814 9.96611 9.99809C10.1268 10.288 10.3962 10.5023 10.7148 10.5937ZM9.33665 15.4C9.65533 15.4913 9.99726 15.4524 10.2872 15.2917C10.5772 15.1309 10.7914 14.8616 10.8828 14.5429C10.9742 14.2243 10.9352 13.8823 10.7745 13.5924C10.6138 13.3024 10.3444 13.0882 10.0257 12.9968C9.70707 12.9054 9.36514 12.9444 9.07519 13.1051C8.78523 13.2658 8.571 13.5352 8.47962 13.8538C8.38824 14.1725 8.4272 14.5144 8.58793 14.8044C8.74865 15.0944 9.01798 15.3086 9.33665 15.4Z"
            fill="#FFA826" />
    </g>
    <defs>
        <clipPath id="clip0_5968_14722">
            <rect width="20" height="20" fill="white" transform="translate(5.51562) rotate(16)" />
        </clipPath>
    </defs>
</svg>
