<svg width="345" height="279" viewBox="0 0 345 279" fill="none" xmlns="http://www.w3.org/2000/svg">
    <g clip-path="url(#clip0_4352_24885)">
        <mask id="mask0_4352_24885" style="mask-type:alpha" maskUnits="userSpaceOnUse" x="-25" y="0"
            width="425" height="256">
            <rect x="-25" width="425" height="255.407" rx="4.57625" fill="#E7E9F6" />
        </mask>
        <g mask="url(#mask0_4352_24885)">
            <path
                d="M303.856 -122.138L253.501 14.1873L382.189 -52.1786L270.797 40.5768L415.233 47.7972L272.652 72.1288L394.135 151.001L258.569 100.389L324.548 229.779L232.322 117.785L225.117 229.779L200.944 119.656L122.486 208.147L172.841 105.5L44.1533 171.866L155.546 79.1103L11.1091 71.8899L153.69 47.5583L32.2072 -31.3137L167.773 19.2981L101.794 -110.092L194.02 1.90202L201.225 -143.336L225.399 0.031329L303.856 -122.138Z"
                fill="#61DC00" />
        </g>
        <path
            d="M186.768 78.2715V74.9476L194.535 67.7566C195.195 67.1174 195.749 66.5421 196.197 66.0307C196.651 65.5194 196.996 65.0186 197.23 64.5286C197.464 64.0314 197.582 63.4952 197.582 62.9199C197.582 62.2807 197.436 61.7303 197.145 61.2686C196.854 60.7999 196.456 60.4412 195.952 60.1926C195.447 59.937 194.876 59.8091 194.237 59.8091C193.569 59.8091 192.987 59.9441 192.489 60.214C191.992 60.4838 191.609 60.8709 191.339 61.3752C191.069 61.8794 190.934 62.4796 190.934 63.1756H186.555C186.555 61.748 186.879 60.5087 187.525 59.4576C188.171 58.4064 189.077 57.5932 190.241 57.0179C191.406 56.4426 192.749 56.155 194.268 56.155C195.831 56.155 197.191 56.432 198.349 56.986C199.513 57.5328 200.419 58.2928 201.065 59.2658C201.712 60.2388 202.035 61.3539 202.035 62.611C202.035 63.4348 201.871 64.248 201.545 65.0506C201.225 65.8532 200.653 66.7445 199.83 67.7246C199.006 68.6976 197.844 69.8659 196.346 71.2296L193.161 74.351V74.5002H202.322V78.2715H186.768ZM212.42 78.7509C210.587 78.7438 209.011 78.2928 207.69 77.3979C206.376 76.503 205.364 75.2069 204.653 73.5094C203.95 71.812 203.602 69.7701 203.609 67.3837C203.609 65.0044 203.961 62.9767 204.664 61.3006C205.374 59.6245 206.386 58.3496 207.7 57.476C209.021 56.5953 210.594 56.155 212.42 56.155C214.245 56.155 215.815 56.5953 217.128 57.476C218.449 58.3567 219.465 59.6351 220.175 61.3113C220.886 62.9803 221.237 65.0044 221.23 67.3837C221.23 69.7772 220.875 71.8226 220.165 73.5201C219.462 75.2175 218.453 76.5137 217.139 77.4086C215.825 78.3034 214.252 78.7509 212.42 78.7509ZM212.42 74.9263C213.67 74.9263 214.668 74.2978 215.413 73.0407C216.159 71.7836 216.528 69.8979 216.521 67.3837C216.521 65.7289 216.351 64.351 216.01 63.2502C215.676 62.1493 215.2 61.3219 214.582 60.7679C213.971 60.214 213.251 59.937 212.42 59.937C211.177 59.937 210.182 60.5584 209.437 61.8013C208.691 63.0442 208.315 64.905 208.307 67.3837C208.307 69.0598 208.474 70.459 208.808 71.5811C209.149 72.6962 209.628 73.5343 210.246 74.0953C210.864 74.6493 211.589 74.9263 212.42 74.9263ZM234.662 74.1806V73.03C234.662 72.1564 234.846 71.3539 235.216 70.6223C235.592 69.8837 236.135 69.2942 236.846 68.8539C237.563 68.4064 238.437 68.1827 239.466 68.1827C240.51 68.1827 241.388 68.4029 242.098 68.8432C242.815 69.2836 243.355 69.873 243.717 70.6117C244.086 71.3432 244.271 72.1493 244.271 73.03V74.1806C244.271 75.0542 244.086 75.8603 243.717 76.5989C243.348 77.3304 242.804 77.9164 242.087 78.3567C241.37 78.8042 240.496 79.0279 239.466 79.0279C238.422 79.0279 237.545 78.8042 236.835 78.3567C236.125 77.9164 235.585 77.3304 235.216 76.5989C234.846 75.8603 234.662 75.0542 234.662 74.1806ZM237.762 73.03V74.1806C237.762 74.6848 237.883 75.1607 238.124 75.6081C238.373 76.0556 238.82 76.2793 239.466 76.2793C240.113 76.2793 240.553 76.0591 240.787 75.6188C241.029 75.1784 241.15 74.699 241.15 74.1806V73.03C241.15 72.5115 241.036 72.0286 240.809 71.5811C240.581 71.1337 240.134 70.91 239.466 70.91C238.827 70.91 238.383 71.1337 238.135 71.5811C237.886 72.0286 237.762 72.5115 237.762 73.03ZM223.465 61.6948V60.5442C223.465 59.6635 223.653 58.8574 224.03 58.1259C224.406 57.3873 224.949 56.7978 225.66 56.3574C226.377 55.9171 227.243 55.6969 228.259 55.6969C229.31 55.6969 230.191 55.9171 230.901 56.3574C231.611 56.7978 232.151 57.3873 232.52 58.1259C232.89 58.8574 233.074 59.6635 233.074 60.5442V61.6948C233.074 62.5755 232.886 63.3816 232.51 64.1131C232.14 64.8446 231.597 65.4306 230.88 65.8709C230.17 66.3042 229.296 66.5208 228.259 66.5208C227.222 66.5208 226.345 66.3006 225.628 65.8603C224.917 65.4128 224.378 64.8269 224.008 64.1024C223.646 63.3709 223.465 62.5684 223.465 61.6948ZM226.586 60.5442V61.6948C226.586 62.2132 226.707 62.6926 226.949 63.133C227.197 63.5733 227.634 63.7935 228.259 63.7935C228.912 63.7935 229.356 63.5733 229.591 63.133C229.832 62.6926 229.953 62.2132 229.953 61.6948V60.5442C229.953 60.0257 229.839 59.5428 229.612 59.0953C229.385 58.6479 228.934 58.4242 228.259 58.4242C227.627 58.4242 227.19 58.6515 226.949 59.106C226.707 59.5605 226.586 60.0399 226.586 60.5442ZM224.871 78.2715L239.871 56.4533H242.662L227.662 78.2715H224.871Z"
            fill="black" />
        <path
            d="M183.153 49H180.799V41.7273H183.228C183.941 41.7273 184.553 41.8729 185.064 42.1641C185.575 42.4529 185.967 42.8684 186.239 43.4105C186.514 43.9503 186.651 44.5978 186.651 45.353C186.651 46.1106 186.513 46.7616 186.236 47.3061C185.961 47.8506 185.563 48.2696 185.043 48.5632C184.522 48.8544 183.892 49 183.153 49ZM181.896 48.0412H183.093C183.647 48.0412 184.107 47.937 184.474 47.7287C184.841 47.518 185.116 47.2138 185.298 46.8161C185.481 46.416 185.572 45.9283 185.572 45.353C185.572 44.7824 185.481 44.2983 185.298 43.9006C185.118 43.5028 184.85 43.201 184.492 42.995C184.135 42.7891 183.691 42.6861 183.161 42.6861H181.896V48.0412ZM187.631 49V43.5455H188.692V49H187.631ZM188.167 42.7038C187.982 42.7038 187.824 42.6423 187.691 42.5192C187.561 42.3937 187.496 42.2446 187.496 42.0717C187.496 41.8965 187.561 41.7474 187.691 41.6243C187.824 41.4988 187.982 41.4361 188.167 41.4361C188.351 41.4361 188.509 41.4988 188.639 41.6243C188.772 41.7474 188.838 41.8965 188.838 42.0717C188.838 42.2446 188.772 42.3937 188.639 42.5192C188.509 42.6423 188.351 42.7038 188.167 42.7038ZM193.908 44.8771L192.946 45.0476C192.906 44.9245 192.842 44.8073 192.754 44.696C192.669 44.5848 192.553 44.4936 192.406 44.4226C192.259 44.3516 192.076 44.3161 191.856 44.3161C191.555 44.3161 191.304 44.3835 191.103 44.5185C190.902 44.651 190.801 44.8227 190.801 45.0334C190.801 45.2157 190.868 45.3625 191.003 45.4737C191.138 45.585 191.356 45.6761 191.657 45.7472L192.523 45.946C193.025 46.062 193.399 46.2408 193.645 46.4822C193.892 46.7237 194.015 47.0374 194.015 47.4233C194.015 47.75 193.92 48.0412 193.731 48.2969C193.544 48.5502 193.282 48.7491 192.946 48.8935C192.612 49.0379 192.225 49.1101 191.785 49.1101C191.174 49.1101 190.675 48.9799 190.29 48.7195C189.904 48.4567 189.667 48.0838 189.579 47.6009L190.606 47.4446C190.67 47.7121 190.801 47.9145 191 48.0518C191.199 48.1868 191.458 48.2543 191.777 48.2543C192.125 48.2543 192.404 48.1821 192.612 48.0376C192.82 47.8909 192.925 47.7121 192.925 47.5014C192.925 47.331 192.861 47.1877 192.733 47.0717C192.607 46.9557 192.414 46.8681 192.154 46.8089L191.231 46.6065C190.722 46.4905 190.345 46.3059 190.101 46.0526C189.86 45.7992 189.739 45.4785 189.739 45.0902C189.739 44.7682 189.829 44.4865 190.009 44.245C190.189 44.0036 190.438 43.8153 190.755 43.6804C191.072 43.5431 191.435 43.4744 191.845 43.4744C192.434 43.4744 192.898 43.6023 193.237 43.858C193.576 44.1113 193.799 44.451 193.908 44.8771ZM197.18 49.1101C196.652 49.1101 196.197 48.9905 195.816 48.7514C195.437 48.5099 195.146 48.1773 194.943 47.7536C194.739 47.3298 194.637 46.8445 194.637 46.2976C194.637 45.7436 194.741 45.2547 194.95 44.831C195.158 44.4048 195.452 44.0722 195.83 43.8331C196.209 43.594 196.655 43.4744 197.169 43.4744C197.583 43.4744 197.953 43.5514 198.277 43.7053C198.601 43.8568 198.863 44.0698 199.062 44.3445C199.263 44.6191 199.383 44.9399 199.42 45.3068H198.387C198.33 45.0511 198.2 44.831 197.996 44.6463C197.795 44.4616 197.525 44.3693 197.187 44.3693C196.891 44.3693 196.632 44.4474 196.409 44.6037C196.189 44.7576 196.017 44.9777 195.894 45.2642C195.771 45.5483 195.71 45.8845 195.71 46.2727C195.71 46.6705 195.77 47.0137 195.891 47.3026C196.011 47.5914 196.182 47.8151 196.402 47.9737C196.625 48.1323 196.886 48.2116 197.187 48.2116C197.388 48.2116 197.57 48.175 197.734 48.1016C197.899 48.0258 198.038 47.9181 198.149 47.7784C198.263 47.6387 198.342 47.4706 198.387 47.2741H199.42C199.383 47.6269 199.268 47.9418 199.076 48.2188C198.884 48.4957 198.627 48.7135 198.305 48.8722C197.986 49.0308 197.611 49.1101 197.18 49.1101ZM202.554 49.1101C202.042 49.1101 201.596 48.9929 201.215 48.7585C200.834 48.5241 200.538 48.1963 200.327 47.7749C200.116 47.3535 200.011 46.861 200.011 46.2976C200.011 45.7318 200.116 45.237 200.327 44.8132C200.538 44.3894 200.834 44.0604 201.215 43.826C201.596 43.5916 202.042 43.4744 202.554 43.4744C203.065 43.4744 203.511 43.5916 203.892 43.826C204.273 44.0604 204.569 44.3894 204.78 44.8132C204.991 45.237 205.096 45.7318 205.096 46.2976C205.096 46.861 204.991 47.3535 204.78 47.7749C204.569 48.1963 204.273 48.5241 203.892 48.7585C203.511 48.9929 203.065 49.1101 202.554 49.1101ZM202.557 48.2188C202.889 48.2188 203.163 48.1312 203.381 47.956C203.599 47.7808 203.76 47.5476 203.864 47.2564C203.97 46.9652 204.024 46.6444 204.024 46.294C204.024 45.946 203.97 45.6264 203.864 45.3352C203.76 45.0417 203.599 44.8061 203.381 44.6286C203.163 44.451 202.889 44.3622 202.557 44.3622C202.223 44.3622 201.946 44.451 201.726 44.6286C201.508 44.8061 201.346 45.0417 201.24 45.3352C201.135 45.6264 201.083 45.946 201.083 46.294C201.083 46.6444 201.135 46.9652 201.24 47.2564C201.346 47.5476 201.508 47.7808 201.726 47.956C201.946 48.1312 202.223 48.2188 202.557 48.2188ZM209.437 46.7379V43.5455H210.502V49H209.458V48.0554H209.401C209.276 48.3466 209.074 48.5893 208.797 48.7834C208.523 48.9751 208.181 49.071 207.771 49.071C207.421 49.071 207.111 48.9941 206.841 48.8402C206.573 48.6839 206.363 48.4531 206.209 48.1477C206.057 47.8423 205.981 47.4647 205.981 47.0149V43.5455H207.043V46.8871C207.043 47.2588 207.146 47.5547 207.352 47.7749C207.558 47.995 207.826 48.1051 208.155 48.1051C208.354 48.1051 208.551 48.0554 208.748 47.956C208.947 47.8565 209.111 47.7062 209.241 47.505C209.374 47.3037 209.439 47.0481 209.437 46.7379ZM212.69 45.7614V49H211.629V43.5455H212.648V44.4332H212.715C212.841 44.1444 213.037 43.9124 213.305 43.7372C213.575 43.562 213.914 43.4744 214.324 43.4744C214.696 43.4744 215.021 43.5526 215.3 43.7088C215.58 43.8627 215.796 44.0923 215.95 44.3977C216.104 44.7031 216.181 45.0807 216.181 45.5305V49H215.119V45.6584C215.119 45.263 215.016 44.9541 214.81 44.7315C214.604 44.5066 214.322 44.3942 213.962 44.3942C213.716 44.3942 213.497 44.4474 213.305 44.554C213.115 44.6605 212.965 44.8168 212.854 45.0227C212.745 45.2263 212.69 45.4725 212.69 45.7614ZM219.851 43.5455V44.3977H216.872V43.5455H219.851ZM217.671 42.2386H218.733V47.3984C218.733 47.6044 218.764 47.7595 218.825 47.8636C218.887 47.9654 218.966 48.0353 219.063 48.0732C219.162 48.1087 219.27 48.1264 219.386 48.1264C219.471 48.1264 219.546 48.1205 219.61 48.1087C219.674 48.0968 219.724 48.0874 219.759 48.0803L219.951 48.9574C219.889 48.9811 219.802 49.0047 219.688 49.0284C219.574 49.0545 219.432 49.0687 219.262 49.071C218.983 49.0758 218.722 49.026 218.481 48.9219C218.239 48.8177 218.044 48.6567 217.895 48.4389C217.746 48.2211 217.671 47.9477 217.671 47.6186V42.2386ZM224.725 44.8771L223.763 45.0476C223.723 44.9245 223.659 44.8073 223.571 44.696C223.486 44.5848 223.37 44.4936 223.223 44.4226C223.076 44.3516 222.893 44.3161 222.673 44.3161C222.372 44.3161 222.121 44.3835 221.92 44.5185C221.719 44.651 221.618 44.8227 221.618 45.0334C221.618 45.2157 221.686 45.3625 221.821 45.4737C221.955 45.585 222.173 45.6761 222.474 45.7472L223.34 45.946C223.842 46.062 224.216 46.2408 224.463 46.4822C224.709 46.7237 224.832 47.0374 224.832 47.4233C224.832 47.75 224.737 48.0412 224.548 48.2969C224.361 48.5502 224.099 48.7491 223.763 48.8935C223.429 49.0379 223.042 49.1101 222.602 49.1101C221.991 49.1101 221.493 48.9799 221.107 48.7195C220.721 48.4567 220.484 48.0838 220.397 47.6009L221.423 47.4446C221.487 47.7121 221.618 47.9145 221.817 48.0518C222.016 48.1868 222.275 48.2543 222.595 48.2543C222.943 48.2543 223.221 48.1821 223.429 48.0376C223.638 47.8909 223.742 47.7121 223.742 47.5014C223.742 47.331 223.678 47.1877 223.55 47.0717C223.424 46.9557 223.232 46.8681 222.971 46.8089L222.048 46.6065C221.539 46.4905 221.162 46.3059 220.919 46.0526C220.677 45.7992 220.556 45.4785 220.556 45.0902C220.556 44.7682 220.646 44.4865 220.826 44.245C221.006 44.0036 221.255 43.8153 221.572 43.6804C221.889 43.5431 222.253 43.4744 222.662 43.4744C223.252 43.4744 223.716 43.6023 224.054 43.858C224.393 44.1113 224.616 44.451 224.725 44.8771ZM231.501 46.7379V43.5455H232.566V49H231.522V48.0554H231.466C231.34 48.3466 231.139 48.5893 230.862 48.7834C230.587 48.9751 230.245 49.071 229.836 49.071C229.485 49.071 229.175 48.9941 228.905 48.8402C228.638 48.6839 228.427 48.4531 228.273 48.1477C228.122 47.8423 228.046 47.4647 228.046 47.0149V43.5455H229.108V46.8871C229.108 47.2588 229.211 47.5547 229.417 47.7749C229.623 47.995 229.89 48.1051 230.219 48.1051C230.418 48.1051 230.616 48.0554 230.812 47.956C231.011 47.8565 231.176 47.7062 231.306 47.505C231.438 47.3037 231.503 47.0481 231.501 46.7379ZM233.693 51.0455V43.5455H234.73V44.4297H234.819C234.88 44.3161 234.969 44.1847 235.085 44.0355C235.201 43.8864 235.362 43.7562 235.568 43.6449C235.774 43.5312 236.046 43.4744 236.385 43.4744C236.825 43.4744 237.218 43.5857 237.564 43.8082C237.909 44.0308 238.181 44.3516 238.377 44.7706C238.576 45.1896 238.675 45.6939 238.675 46.2834C238.675 46.8729 238.577 47.3783 238.381 47.7997C238.184 48.2187 237.914 48.5419 237.571 48.7692C237.228 48.9941 236.836 49.1065 236.395 49.1065C236.064 49.1065 235.793 49.0509 235.582 48.9396C235.374 48.8284 235.211 48.6982 235.092 48.549C234.974 48.3999 234.883 48.2673 234.819 48.1513H234.755V51.0455H233.693ZM234.734 46.2727C234.734 46.6562 234.789 46.9924 234.9 47.2812C235.012 47.5701 235.173 47.7962 235.383 47.9595C235.594 48.1205 235.852 48.201 236.158 48.201C236.475 48.201 236.74 48.117 236.953 47.9489C237.166 47.7784 237.327 47.5476 237.436 47.2564C237.547 46.9652 237.603 46.6373 237.603 46.2727C237.603 45.9129 237.548 45.5897 237.44 45.3033C237.333 45.0168 237.172 44.7907 236.957 44.625C236.744 44.4593 236.477 44.3764 236.158 44.3764C235.85 44.3764 235.589 44.4557 235.376 44.6143C235.166 44.773 235.006 44.9943 234.897 45.2784C234.788 45.5625 234.734 45.8939 234.734 46.2727ZM244.458 43.5455V44.3977H241.478V43.5455H244.458ZM242.277 42.2386H243.339V47.3984C243.339 47.6044 243.37 47.7595 243.431 47.8636C243.493 47.9654 243.572 48.0353 243.669 48.0732C243.769 48.1087 243.876 48.1264 243.992 48.1264C244.078 48.1264 244.152 48.1205 244.216 48.1087C244.28 48.0968 244.33 48.0874 244.365 48.0803L244.557 48.9574C244.495 48.9811 244.408 49.0047 244.294 49.0284C244.181 49.0545 244.039 49.0687 243.868 49.071C243.589 49.0758 243.328 49.026 243.087 48.9219C242.845 48.8177 242.65 48.6567 242.501 48.4389C242.352 48.2211 242.277 47.9477 242.277 47.6186V42.2386ZM247.571 49.1101C247.06 49.1101 246.614 48.9929 246.232 48.7585C245.851 48.5241 245.555 48.1963 245.345 47.7749C245.134 47.3535 245.029 46.861 245.029 46.2976C245.029 45.7318 245.134 45.237 245.345 44.8132C245.555 44.3894 245.851 44.0604 246.232 43.826C246.614 43.5916 247.06 43.4744 247.571 43.4744C248.082 43.4744 248.529 43.5916 248.91 43.826C249.291 44.0604 249.587 44.3894 249.798 44.8132C250.008 45.237 250.114 45.7318 250.114 46.2976C250.114 46.861 250.008 47.3535 249.798 47.7749C249.587 48.1963 249.291 48.5241 248.91 48.7585C248.529 48.9929 248.082 49.1101 247.571 49.1101ZM247.575 48.2188C247.906 48.2188 248.181 48.1312 248.399 47.956C248.616 47.7808 248.777 47.5476 248.882 47.2564C248.988 46.9652 249.041 46.6444 249.041 46.294C249.041 45.946 248.988 45.6264 248.882 45.3352C248.777 45.0417 248.616 44.8061 248.399 44.6286C248.181 44.451 247.906 44.3622 247.575 44.3622C247.241 44.3622 246.964 44.451 246.744 44.6286C246.526 44.8061 246.364 45.0417 246.257 45.3352C246.153 45.6264 246.101 45.946 246.101 46.294C246.101 46.6444 246.153 46.9652 246.257 47.2564C246.364 47.5476 246.526 47.7808 246.744 47.956C246.964 48.1312 247.241 48.2188 247.575 48.2188Z"
            fill="black" />
        <g filter="url(#filter0_d_4352_24885)">
            <ellipse rx="50.6371" ry="50.6948"
                transform="matrix(0.920901 -0.389802 0.384983 0.922926 315.15 227.412)"
                fill="#FF3D00" />
        </g>
        <path fill-rule="evenodd" clip-rule="evenodd"
            d="M332.903 206.168L294.899 246.276L297.396 248.655L335.4 208.548L332.903 206.168ZM302.998 224.28C301.293 224.326 299.614 223.864 298.173 222.952C296.733 222.041 295.595 220.72 294.905 219.158C294.214 217.596 294.002 215.862 294.294 214.176C294.587 212.49 295.371 210.927 296.547 209.685C297.724 208.443 299.24 207.578 300.905 207.2C302.569 206.821 304.306 206.945 305.897 207.557C307.488 208.169 308.861 209.241 309.843 210.637C310.824 212.033 311.37 213.691 311.411 215.401C311.463 217.694 310.607 219.916 309.03 221.58C307.453 223.245 305.283 224.216 302.998 224.28ZM322.894 246.509C324.334 247.421 326.013 247.883 327.718 247.837C330.004 247.772 332.173 246.802 333.751 245.137C335.328 243.472 336.184 241.25 336.132 238.958C336.09 237.248 335.545 235.59 334.563 234.194C333.582 232.797 332.209 231.726 330.618 231.114C329.027 230.502 327.289 230.378 325.625 230.756C323.961 231.135 322.445 232 321.268 233.242C320.091 234.484 319.307 236.046 319.015 237.732C318.723 239.419 318.935 241.152 319.626 242.715C320.316 244.277 321.453 245.597 322.894 246.509Z"
            fill="white" />
        <g filter="url(#filter1_d_4352_24885)">
            <ellipse cx="28.5" cy="94.5353" rx="89.5" ry="90.0109" fill="#FF3D00" />
        </g>
        <path
            d="M7.57004 129.781C7.08805 129.38 6.75251 128.829 6.61635 128.215C6.48018 127.601 6.55115 126.959 6.81805 126.39L21.3189 95.731L8.29282 91.7988C7.87652 91.6854 7.4917 91.4772 7.16807 91.1904C6.84444 90.9037 6.59063 90.546 6.42624 90.1449C6.26185 89.7439 6.19126 89.3102 6.21993 88.8774C6.2486 88.4446 6.37575 88.0242 6.59158 87.6486L25.2057 54.831C25.5291 54.2672 26.0359 53.8326 26.6406 53.6005C27.2454 53.3684 27.9111 53.3529 28.5259 53.5567L55.495 61.6978C55.8983 61.818 56.2697 62.0276 56.5819 62.3112C56.8941 62.5947 57.1391 62.945 57.299 63.3363C57.4615 63.7323 57.5325 64.1601 57.5067 64.5876C57.481 65.0152 57.3591 65.4313 57.1503 65.8046L46.1869 85.4979L58.9972 89.3649C59.5029 89.5165 59.9562 89.8079 60.3052 90.206C60.6542 90.6042 60.8849 91.0929 60.9711 91.6165C61.0336 92.113 60.9641 92.6173 60.7698 93.078C60.5755 93.5387 60.2633 93.9394 59.8649 94.2393L11.0438 129.765C10.7014 130.047 10.2979 130.243 9.86581 130.339C9.43377 130.435 8.98541 130.426 8.55707 130.315C8.19822 130.199 7.86363 130.018 7.57004 129.781V129.781Z"
            fill="white" />
    </g>
    <defs>
        <filter id="filter0_d_4352_24885" x="259.14" y="158.795" width="140.737" height="141.196"
            filterUnits="userSpaceOnUse" color-interpolation-filters="sRGB">
            <feFlood flood-opacity="0" result="BackgroundImageFix" />
            <feColorMatrix in="SourceAlpha" type="matrix"
                values="0 0 0 0 0 0 0 0 0 0 0 0 0 0 0 0 0 0 127 0" result="hardAlpha" />
            <feOffset dx="14.358" dy="1.98042" />
            <feGaussianBlur stdDeviation="9.90208" />
            <feComposite in2="hardAlpha" operator="out" />
            <feColorMatrix type="matrix"
                values="0 0 0 0 1 0 0 0 0 0.239216 0 0 0 0 0 0 0 0 0.06 0" />
            <feBlend mode="normal" in2="BackgroundImageFix"
                result="effect1_dropShadow_4352_24885" />
            <feBlend mode="normal" in="SourceGraphic" in2="effect1_dropShadow_4352_24885"
                result="shape" />
        </filter>
        <filter id="filter1_d_4352_24885" x="-65.9114" y="-11.5493" width="214.719" height="215.741"
            filterUnits="userSpaceOnUse" color-interpolation-filters="sRGB">
            <feFlood flood-opacity="0" result="BackgroundImageFix" />
            <feColorMatrix in="SourceAlpha" type="matrix"
                values="0 0 0 0 0 0 0 0 0 0 0 0 0 0 0 0 0 0 127 0" result="hardAlpha" />
            <feOffset dx="12.9483" dy="1.78597" />
            <feGaussianBlur stdDeviation="8.92983" />
            <feComposite in2="hardAlpha" operator="out" />
            <feColorMatrix type="matrix"
                values="0 0 0 0 1 0 0 0 0 0.239216 0 0 0 0 0 0 0 0 0.05 0" />
            <feBlend mode="normal" in2="BackgroundImageFix"
                result="effect1_dropShadow_4352_24885" />
            <feBlend mode="normal" in="SourceGraphic" in2="effect1_dropShadow_4352_24885"
                result="shape" />
        </filter>
        <clipPath id="clip0_4352_24885">
            <rect width="345" height="279" rx="8" fill="white" />
        </clipPath>
    </defs>
</svg>
